name rise49.5252peak65.1548fall88.8305.mot
datacolumns 19
datarows 23
range 17.20659400000000 17.24326600000000
endheader
time	ground_force1_vx	ground_force1_vy	ground_force1_vz	ground_force1_px	ground_force1_py	ground_force1_pz	ground_force2_vx	ground_force2_vy	ground_force2_vz	ground_force2_px	ground_force2_py	ground_force2_pz	ground_torque1_x	ground_torque1_y	ground_torque1_z	ground_torque2_x	ground_torque2_y	ground_torque2_z	
17.20659400000000	-41.55280700000000	781.23253199999999	61.12967800000000	0.19580100000000	0.00000000000000	0.11547800000000	-13.83786200000000	38.62878100000000	8.38560100000000	0.42219500000000	0.00000000000000	-0.06090400000000	0.00000000000000	32.32710200000000	0.00000000000000	0.00000000000000	5.98581300000000	0.00000000000000	
17.20826900000000	-41.53806700000000	777.75846600000000	60.82291900000000	0.19508600000000	0.00000000000000	0.11545000000000	-15.38576200000000	45.05435500000000	9.45851500000000	0.42377200000000	0.00000000000000	-0.06183500000000	0.00000000000000	32.11045800000000	0.00000000000000	0.00000000000000	6.78276600000000	0.00000000000000	
17.20993400000000	-41.53065400000000	774.19719899999996	60.49076400000000	0.19437400000000	0.00000000000000	0.11541900000000	-16.73259900000000	51.50581800000000	10.44393200000000	0.42532200000000	0.00000000000000	-0.06269200000000	0.00000000000000	31.88861500000000	0.00000000000000	0.00000000000000	7.52694000000000	0.00000000000000	
17.21159500000000	-41.53124700000000	770.55077000000006	60.13333900000000	0.19366500000000	0.00000000000000	0.11538400000000	-17.84285400000000	57.89686000000000	11.31972200000000	0.42684700000000	0.00000000000000	-0.06348600000000	0.00000000000000	31.66186400000000	0.00000000000000	0.00000000000000	8.20270800000000	0.00000000000000	
17.21326100000000	-41.54050800000000	766.82114799999999	59.75081700000000	0.19296000000000	0.00000000000000	0.11534400000000	-18.69483200000000	64.16414600000000	12.07099200000000	0.42834700000000	0.00000000000000	-0.06422500000000	0.00000000000000	31.43050500000000	0.00000000000000	0.00000000000000	8.79925600000000	0.00000000000000	
17.21493300000000	-41.55908400000000	763.01022300000000	59.34341700000000	0.19225900000000	0.00000000000000	0.11530100000000	-19.28058000000000	70.26906900000000	12.69020800000000	0.42982400000000	0.00000000000000	-0.06491600000000	0.00000000000000	31.19484300000000	0.00000000000000	0.00000000000000	9.31072500000000	0.00000000000000	
17.21660000000000	-41.58759700000000	759.11979299999996	58.91140200000000	0.19156300000000	0.00000000000000	0.11525200000000	-19.60469400000000	76.19719000000001	13.17669700000000	0.43128000000000	0.00000000000000	-0.06556500000000	0.00000000000000	30.95518800000000	0.00000000000000	0.00000000000000	9.73591000000000	0.00000000000000	
17.21826200000000	-41.62665000000000	755.15156200000001	58.45508100000000	0.19087200000000	0.00000000000000	0.11519900000000	-19.68229500000000	81.95577100000000	13.53566900000000	0.43271400000000	0.00000000000000	-0.06617800000000	0.00000000000000	30.71185400000000	0.00000000000000	0.00000000000000	10.07764700000000	0.00000000000000	
17.21993400000000	-41.67681300000000	751.10712500000000	57.97480400000000	0.19018700000000	0.00000000000000	0.11514200000000	-19.53648700000000	87.56994500000000	13.77693000000000	0.43412900000000	0.00000000000000	-0.06675700000000	0.00000000000000	30.46515600000000	0.00000000000000	0.00000000000000	10.34195700000000	0.00000000000000	
17.22159200000000	-41.73863100000000	746.98796700000003	57.47096300000000	0.18950800000000	0.00000000000000	0.11507900000000	-19.19558600000000	93.07808100000000	13.91343400000000	0.43552400000000	0.00000000000000	-0.06730800000000	0.00000000000000	30.21541000000000	0.00000000000000	0.00000000000000	10.53708600000000	0.00000000000000	
17.22326700000000	-41.81261100000000	742.79545399999995	56.94398800000000	0.18883700000000	0.00000000000000	0.11501200000000	-18.69040700000000	98.52685600000000	13.95983500000000	0.43690100000000	0.00000000000000	-0.06783100000000	0.00000000000000	29.96293200000000	0.00000000000000	0.00000000000000	10.67252700000000	0.00000000000000	
17.22493100000000	-41.89922600000000	738.53082500000005	56.39435000000000	0.18817200000000	0.00000000000000	0.11493900000000	-18.05180400000000	103.96649600000001	13.93114400000000	0.43826000000000	0.00000000000000	-0.06833100000000	0.00000000000000	29.70803500000000	0.00000000000000	0.00000000000000	10.75810400000000	0.00000000000000	
17.22659800000000	-41.99890800000000	734.19519300000002	55.82255200000000	0.18751600000000	0.00000000000000	0.11486100000000	-17.30861900000000	109.44653200000000	13.84159400000000	0.43960200000000	0.00000000000000	-0.06881000000000	0.00000000000000	29.45102800000000	0.00000000000000	0.00000000000000	10.80318800000000	0.00000000000000	
17.22826600000000	-42.11204400000000	729.78953600000000	55.22913600000000	0.18686800000000	0.00000000000000	0.11477800000000	-16.48613500000000	115.01231400000000	13.70375700000000	0.44092600000000	0.00000000000000	-0.06926900000000	0.00000000000000	29.19221700000000	0.00000000000000	0.00000000000000	10.81608000000000	0.00000000000000	
17.22993000000000	-42.23897700000000	725.31469400000003	54.61467100000000	0.18623000000000	0.00000000000000	0.11468900000000	-15.60506300000000	120.70242399999999	13.52793700000000	0.44223400000000	0.00000000000000	-0.06971000000000	0.00000000000000	28.93189900000000	0.00000000000000	0.00000000000000	10.80358200000000	0.00000000000000	
17.23159900000000	-42.37999500000000	720.77136900000005	53.97976100000000	0.18560000000000	0.00000000000000	0.11459600000000	-14.68104200000000	126.54701400000000	13.32184600000000	0.44352600000000	0.00000000000000	-0.07013400000000	0.00000000000000	28.67036400000000	0.00000000000000	0.00000000000000	10.77075100000000	0.00000000000000	
17.23326600000000	-42.53533400000000	716.16012200000000	53.32503700000000	0.18498100000000	0.00000000000000	0.11449600000000	-13.72460400000000	132.56705299999999	13.09052600000000	0.44480100000000	0.00000000000000	-0.07054300000000	0.00000000000000	28.40789300000000	0.00000000000000	0.00000000000000	10.72083400000000	0.00000000000000	
17.23492700000000	-42.70517400000000	711.48137199999996	52.65115400000000	0.18437200000000	0.00000000000000	0.11439100000000	-12.74152000000000	138.77434400000001	12.83649000000000	0.44606100000000	0.00000000000000	-0.07093800000000	0.00000000000000	28.14475600000000	0.00000000000000	0.00000000000000	10.65533800000000	0.00000000000000	
17.23659200000000	-42.88963200000000	706.73539500000004	51.95879500000000	0.18377500000000	0.00000000000000	0.11428100000000	-11.73343100000000	145.17219299999999	12.56002000000000	0.44730500000000	0.00000000000000	-0.07132100000000	0.00000000000000	27.88120900000000	0.00000000000000	0.00000000000000	10.57423200000000	0.00000000000000	
17.23826700000000	-43.08875900000000	701.92232600000000	51.24866300000000	0.18318900000000	0.00000000000000	0.11416400000000	-10.69867000000000	151.75654900000001	12.25958300000000	0.44853200000000	0.00000000000000	-0.07169000000000	0.00000000000000	27.61749800000000	0.00000000000000	0.00000000000000	10.47621400000000	0.00000000000000	
17.23993600000000	-43.30254300000000	697.04216099999996	50.52148100000000	0.18261400000000	0.00000000000000	0.11404300000000	-9.63316600000000	158.51744500000001	11.93230300000000	0.44974400000000	0.00000000000000	-0.07204900000000	0.00000000000000	27.35385100000000	0.00000000000000	0.00000000000000	10.35903100000000	0.00000000000000	
17.24160000000000	-43.53089900000000	692.09475499999996	49.77799100000000	0.18205300000000	0.00000000000000	0.11391500000000	-8.53136600000000	165.44057300000000	11.57444500000000	0.45094000000000	0.00000000000000	-0.07239700000000	0.00000000000000	27.09048200000000	0.00000000000000	0.00000000000000	10.21981700000000	0.00000000000000	
17.24326600000000	-43.77366800000000	687.07983000000002	49.01894900000000	0.18150400000000	0.00000000000000	0.11378200000000	-7.38708500000000	172.50885900000000	11.18188600000000	0.45212000000000	0.00000000000000	-0.07273400000000	0.00000000000000	26.82758600000000	0.00000000000000	0.00000000000000	10.05540500000000	0.00000000000000	
